<svg xmlns="http://www.w3.org/2000/svg" width="900" height="700" viewBox="0 0 900 700" fill="none">
  <defs>
    <linearGradient id="bg" x1="90" y1="60" x2="820" y2="640" gradientUnits="userSpaceOnUse">
      <stop stop-color="#6D5EFC" stop-opacity="0.35"/>
      <stop offset="0.55" stop-color="#22D3EE" stop-opacity="0.26"/>
      <stop offset="1" stop-color="#A7F3D0" stop-opacity="0.18"/>
    </linearGradient>
    <linearGradient id="bot" x1="290" y1="220" x2="610" y2="520" gradientUnits="userSpaceOnUse">
      <stop stop-color="rgba(255,255,255,.92)"/>
      <stop offset="1" stop-color="rgba(255,255,255,.78)"/>
    </linearGradient>
    <linearGradient id="accent" x1="340" y1="260" x2="560" y2="440" gradientUnits="userSpaceOnUse">
      <stop stop-color="#6D5EFC"/>
      <stop offset="0.6" stop-color="#22D3EE"/>
      <stop offset="1" stop-color="#A7F3D0"/>
    </linearGradient>
    <filter id="soft" x="-20%" y="-20%" width="140%" height="140%">
      <feGaussianBlur stdDeviation="18" result="b"/>
      <feColorMatrix in="b" type="matrix"
        values="1 0 0 0 0
                0 1 0 0 0
                0 0 1 0 0
                0 0 0 .65 0"/>
      <feBlend in="SourceGraphic"/>
    </filter>
  </defs>

  <!-- Orbs -->
  <circle cx="210" cy="150" r="160" fill="#6D5EFC" fill-opacity="0.12" filter="url(#soft)"/>
  <circle cx="690" cy="160" r="170" fill="#22D3EE" fill-opacity="0.10" filter="url(#soft)"/>
  <circle cx="700" cy="560" r="190" fill="#A7F3D0" fill-opacity="0.07" filter="url(#soft)"/>

  <!-- Back card -->
  <rect x="120" y="110" width="660" height="460" rx="34" fill="url(#bg)" stroke="rgba(255,255,255,.14)" />
  <path d="M160 220h580" stroke="rgba(255,255,255,.18)" stroke-width="2"/>
  <path d="M160 300h520" stroke="rgba(255,255,255,.14)" stroke-width="2"/>
  <path d="M160 380h560" stroke="rgba(255,255,255,.12)" stroke-width="2"/>
  <path d="M160 460h450" stroke="rgba(255,255,255,.10)" stroke-width="2"/>

  <!-- Robot -->
  <rect x="270" y="200" width="360" height="340" rx="44" fill="url(#bot)" stroke="rgba(255,255,255,.22)"/>
  <rect x="320" y="250" width="260" height="150" rx="26" fill="rgba(11,16,32,.78)" stroke="rgba(255,255,255,.14)"/>

  <!-- Eyes -->
  <circle cx="400" cy="325" r="24" fill="url(#accent)"/>
  <circle cx="500" cy="325" r="24" fill="url(#accent)"/>
  <circle cx="400" cy="325" r="10" fill="rgba(255,255,255,.85)"/>
  <circle cx="500" cy="325" r="10" fill="rgba(255,255,255,.85)"/>

  <!-- Smile -->
  <path d="M400 392c20 18 80 18 100 0" stroke="rgba(255,255,255,.75)" stroke-width="10" stroke-linecap="round"/>

  <!-- Antenna -->
  <path d="M450 200v-40" stroke="rgba(255,255,255,.65)" stroke-width="10" stroke-linecap="round"/>
  <circle cx="450" cy="150" r="16" fill="url(#accent)"/>

  <!-- Side badges -->
  <rect x="170" y="150" width="170" height="60" rx="18" fill="rgba(255,255,255,.10)" stroke="rgba(255,255,255,.16)"/>
  <path d="M195 180h95" stroke="rgba(255,255,255,.55)" stroke-width="6" stroke-linecap="round"/>
  <circle cx="310" cy="180" r="10" fill="#34D399" fill-opacity="0.9"/>

  <rect x="560" y="470" width="190" height="70" rx="20" fill="rgba(255,255,255,.10)" stroke="rgba(255,255,255,.16)"/>
  <path d="M585 508h120" stroke="rgba(255,255,255,.55)" stroke-width="6" stroke-linecap="round"/>
  <circle cx="725" cy="508" r="12" fill="#6D5EFC" fill-opacity="0.9"/>

  <!-- Small sparkles -->
  <path d="M740 260l10 10m0-10l-10 10" stroke="rgba(255,255,255,.50)" stroke-width="4" stroke-linecap="round"/>
  <path d="M200 520l10 10m0-10l-10 10" stroke="rgba(255,255,255,.45)" stroke-width="4" stroke-linecap="round"/>
</svg>
