<svg xmlns="http://www.w3.org/2000/svg" width="28" height="28" viewBox="0 0 24 24" fill="none">
  <defs>
    <linearGradient id="ig" x1="3" y1="3" x2="21" y2="21" gradientUnits="userSpaceOnUse">
      <stop stop-color="#6D5EFC"/>
      <stop offset="0.6" stop-color="#22D3EE"/>
      <stop offset="1" stop-color="#A7F3D0"/>
    </linearGradient>
  </defs>
  <path d="M4 12a8 8 0 0 1 16 0v4a3 3 0 0 1-3 3h-1v-8h1a2 2 0 0 0 2-2v0a6 6 0 0 0-12 0v0a2 2 0 0 0 2 2h1v8H7a3 3 0 0 1-3-3v-4Z" stroke="url(#ig)" stroke-width="2" stroke-linecap="round" stroke-linejoin="round"/>
</svg>