<svg xmlns="http://www.w3.org/2000/svg" width="28" height="28" viewBox="0 0 24 24" fill="none">
  <defs>
    <linearGradient id="ig" x1="3" y1="3" x2="21" y2="21" gradientUnits="userSpaceOnUse">
      <stop stop-color="#6D5EFC"/>
      <stop offset="0.6" stop-color="#22D3EE"/>
      <stop offset="1" stop-color="#A7F3D0"/>
    </linearGradient>
  </defs>
  <path d="M7 3v3m10-3v3M4 8h16M6 12h4m-4 4h6m6-4h-4m4 4h-6M5 5h14a2 2 0 0 1 2 2v14a2 2 0 0 1-2 2H5a2 2 0 0 1-2-2V7a2 2 0 0 1 2-2Z" stroke="url(#ig)" stroke-width="2" stroke-linecap="round" stroke-linejoin="round"/>
</svg>